<svg xmlns="http://www.w3.org/2000/svg" width="58.173" height="58.124" viewBox="0 0 58.173 58.124"><defs><style>.a{fill:#f3d9ac;}.b{fill:#ffce04;}.c{fill:#ffbc0b;}.d{fill:#f9b21d;}.e{fill:#f8bc16;}.f{fill:#fff;}</style></defs><path class="a" d="M39.433,0a2.575,2.575,0,0,1-.744.045.133.133,0,0,0,0-.045Z" transform="translate(-11.047 0)"/><path class="a" d="M42.558.046A2.541,2.541,0,0,1,41.815,0h.745a.115.115,0,0,0,0,.046Z" transform="translate(-11.94 0)"/><path class="b" d="M57.942,25.21a28.1,28.1,0,0,0-.945-4.4A29.1,29.1,0,0,0,30.618.046,2.543,2.543,0,0,1,29.875,0H28.385a2.575,2.575,0,0,1-.744.045A28.5,28.5,0,0,0,22.97.663,29.108,29.108,0,0,0,.948,21.855a27.89,27.89,0,0,0-.725,3.926c-.067.6-.115,1.2-.15,1.806A3.188,3.188,0,0,1,0,28.479V30.2a1.224,1.224,0,0,1,.081.539,27.625,27.625,0,0,0,.445,3.713A29.108,29.108,0,0,0,27.269,58.124l3.768,0c.664-.052,1.329-.109,1.989-.2a28.6,28.6,0,0,0,4.867-1.1,29.093,29.093,0,0,0,17.683-15.66,28.234,28.234,0,0,0,2.6-11.149q0-.909,0-1.817A23.953,23.953,0,0,0,57.942,25.21ZM29.427,57.227A28.129,28.129,0,1,1,57.244,28.891,28.129,28.129,0,0,1,29.427,57.227Z" transform="translate(0 0)"/><path class="c" d="M10.154,31.358c-.037-.021-.065-.048-.03-.09s.074-.079.113-.117l21.6-21.584c.051-.051.086-.134.18-.128q0,.418,0,.837,0,1.824-.005,3.648a1.175,1.175,0,0,0-.1.092L28.339,18l-6.251,6.982-4.233,4.731c-.038.043-.1.075-.095.149a.686.686,0,0,0,.254.016c3.093,0,6.186,0,9.279.01a.87.87,0,0,0,.728-.333c1.308-1.472,2.629-2.932,3.946-4.4l.05.009q0,6.633,0,13.265v.047c-.472-.171-.951-.322-1.43-.472-.716-.223-1.421-.478-2.138-.7s-1.436-.481-2.16-.7c-.753-.231-1.494-.5-2.247-.735-.731-.224-1.45-.487-2.182-.711-.7-.215-1.391-.468-2.093-.684-.783-.241-1.553-.522-2.336-.762-.694-.212-1.377-.462-2.071-.678-.753-.234-1.5-.486-2.249-.731l-2.8-.915A.521.521,0,0,0,10.154,31.358Z" transform="translate(-2.886 -2.695)"/><path class="d" d="M40.765,13.924q0-1.824.005-3.648,0-.418,0-.837c.086.028.132.1.191.164Q50.783,19.417,60.6,29.232q.938.937,1.878,1.871c.033.033.067.065.1.1.1.1.1.105-.047.216a.524.524,0,0,0-.295.037c-.676.219-1.347.455-2.027.663-.7.215-1.392.466-2.093.685-.8.248-1.587.518-2.381.775-.676.219-1.346.456-2.027.663-.746.228-1.48.5-2.226.725s-1.464.494-2.2.72-1.465.492-2.2.718c-.694.212-1.377.462-2.071.678-.753.234-1.5.485-2.248.731-.565.186-1.129.378-1.694.565a.641.641,0,0,1-.293.057q0-6.633,0-13.265c.093.032.145.114.209.179q2.189,2.186,4.374,4.376a.446.446,0,0,0,.341.156q4.815-.007,9.63,0c.054,0,.122.032.164-.042l-1.7-1.849q-.851-.923-1.7-1.843l-2.337-2.525-2.273-2.457-1.769-1.91-1.721-1.859q-1.036-1.116-2.074-2.23c-.263-.284-.519-.575-.785-.857a1.2,1.2,0,0,0-.337-.313Z" transform="translate(-11.64 -2.695)"/><path class="b" d="M10.173,40.118a.521.521,0,0,1,.157.035q1.4.459,2.8.915c.749.245,1.5.5,2.249.731.694.216,1.376.465,2.071.678.784.24,1.553.521,2.336.762.7.216,1.391.469,2.093.684.732.224,1.451.486,2.182.711.754.231,1.494.5,2.247.735.724.222,1.436.483,2.16.7s1.422.475,2.138.7c.48.149.958.3,1.43.472q0,7.354,0,14.707c-.1,0-.14-.088-.2-.145q-1.771-1.765-3.537-3.535L10.344,40.306A.821.821,0,0,1,10.173,40.118Z" transform="translate(-2.905 -11.456)"/><path class="e" d="M40.772,61.969q0-7.354,0-14.707v-.047a.641.641,0,0,0,.293-.057c.565-.187,1.129-.379,1.694-.565.749-.246,1.5-.5,2.248-.731.694-.216,1.376-.466,2.071-.677.739-.226,1.465-.492,2.2-.718s1.465-.494,2.2-.72,1.48-.5,2.226-.725c.68-.207,1.35-.445,2.027-.663.794-.257,1.584-.527,2.381-.775.7-.218,1.391-.47,2.093-.685.68-.208,1.351-.443,2.027-.663a.524.524,0,0,1,.295-.037c-.088.086-.177.171-.264.258-2.171,2.171-4.357,4.327-6.51,6.516-4.9,4.978-9.872,9.882-14.8,14.833C40.905,61.864,40.859,61.941,40.772,61.969Z" transform="translate(-11.642 -11.477)"/><path class="a" d="M40.771,15.808a1.2,1.2,0,0,1,.337.313c.265.282.521.573.785.857q1.035,1.116,2.074,2.23.862.928,1.721,1.859l1.769,1.91,2.273,2.457,2.337,2.525,1.7,1.843q.851.922,1.7,1.849c-.042.074-.11.042-.164.042l-9.63,0a.446.446,0,0,1-.341-.156q-2.184-2.19-4.374-4.376c-.065-.065-.116-.147-.209-.179l-.05-.009a.5.5,0,0,0,.047-.315q0-5.277,0-10.555A.871.871,0,0,1,40.771,15.808Z" transform="translate(-11.623 -4.514)"/><path class="f" d="M35.093,15.782a.871.871,0,0,0-.02.3q0,5.277,0,10.555a.5.5,0,0,1-.047.315c-1.317,1.464-2.638,2.923-3.946,4.4a.87.87,0,0,1-.728.333c-3.093-.015-6.186-.009-9.279-.01a.686.686,0,0,1-.254-.016c0-.074.057-.106.095-.149q2.115-2.367,4.233-4.731L31.4,19.792l3.569-3.984a1.175,1.175,0,0,1,.1-.092Z" transform="translate(-5.944 -4.488)"/></svg>