<svg xmlns="http://www.w3.org/2000/svg" width="114.593" height="34.193" viewBox="0 0 114.593 34.193"><defs><style>.a{fill:#fff;}</style></defs><g transform="translate(-130.102 -65.02)"><path class="a" d="M207.507,300.5a.364.364,0,0,1-.514,0l-3.427-3.427a13.437,13.437,0,0,0-1.046,1.885l4,4a1.038,1.038,0,0,0,1.466,0l4-4a13.3,13.3,0,0,0-1.045-1.886Z" transform="translate(-65.725 -210.603)"/><path class="a" d="M316.68,195.1a1.033,1.033,0,0,0-.3-.733l-3.773-3.774a.363.363,0,0,0-.559.06c-.253.381-.513.749-.775,1.1a.358.358,0,0,0,.033.47l2.618,2.618a.362.362,0,0,1,0,.514l-3.42,3.42a17.105,17.105,0,0,1,1.109,1.826l4.768-4.768a1.036,1.036,0,0,0,.3-.735Z" transform="translate(-163.725 -113.872)"/><path class="a" d="M132.856,195.384a.362.362,0,0,1,0-.514l2.618-2.618a.36.36,0,0,0,.034-.47q-.4-.529-.776-1.1a.363.363,0,0,0-.555-.06l-3.773,3.774a1.038,1.038,0,0,0,0,1.466l4.768,4.768a17.107,17.107,0,0,1,1.109-1.826Z" transform="translate(0 -113.899)"/><path class="a" d="M188.052,80.57c.042.033.229.185.515.449,1.484-1.386,4.984-5.1,4.984-9.18a6.82,6.82,0,1,0-13.64,0c0,4.091,3.5,7.793,4.984,9.18.287-.261.474-.416.515-.45A2.117,2.117,0,0,1,188.052,80.57ZM181.9,71.84a4.831,4.831,0,1,1,9.662,0c0,3.861-4.252,7.655-4.831,8.155C186.15,79.495,181.9,75.7,181.9,71.84Z" transform="translate(-45.205)"/><path class="a" d="M180.217,229.169c-.286-.26-.473-.416-.515-.449a2.117,2.117,0,0,0-2.643,0c-.041.034-.228.189-.515.45a23.484,23.484,0,0,0-3.42,3.882,17.1,17.1,0,0,0-1.109,1.826,10.584,10.584,0,0,0-1.305,4.822,7.663,7.663,0,1,0,15.325,0,10.578,10.578,0,0,0-1.306-4.822,17.1,17.1,0,0,0-1.109-1.826A23.487,23.487,0,0,0,180.217,229.169Zm3.65,10.531a5.486,5.486,0,1,1-10.972,0,7.892,7.892,0,0,1,.756-3.2,13.437,13.437,0,0,1,1.046-1.885,21.43,21.43,0,0,1,3.684-4.167,21.482,21.482,0,0,1,3.687,4.165,13.3,13.3,0,0,1,1.045,1.886A7.9,7.9,0,0,1,183.867,239.7Z" transform="translate(-36.855 -148.149)"/><path class="a" d="M426.2,192.936a4.327,4.327,0,0,1,6,.612,4.754,4.754,0,0,1,6.5-.493,4.238,4.238,0,0,1,1.173,3.284v6.24a.361.361,0,0,1-.352.352h-2.392a.346.346,0,0,1-.352-.352v-5.468a3.305,3.305,0,0,0-.47-1.923,1.784,1.784,0,0,0-2.839.259,4.646,4.646,0,0,0-.421,2.275v4.856a.361.361,0,0,1-.352.352H430.3a.347.347,0,0,1-.352-.352v-5.466a3.312,3.312,0,0,0-.469-1.923,1.626,1.626,0,0,0-1.361-.586,1.659,1.659,0,0,0-1.479.845,4.925,4.925,0,0,0-.422,2.2v4.926a.361.361,0,0,1-.352.352h-2.391a.346.346,0,0,1-.352-.352v-10.04a.332.332,0,0,1,.352-.351h2.3a.346.346,0,0,1,.352.351v.4Z" transform="translate(-265.939 -115.244)"/><path class="a" d="M627.734,191.72c3.235,0,5.817,2.111,5.817,5.606s-2.58,5.582-5.817,5.582-5.794-2.087-5.794-5.582A5.442,5.442,0,0,1,627.734,191.72Zm0,8.585a2.989,2.989,0,1,0-2.745-2.979A2.714,2.714,0,0,0,627.734,200.305Z" transform="translate(-446.38 -114.99)"/><path class="a" d="M765.961,137.409h2.392a.361.361,0,0,1,.352.352v15.27a.361.361,0,0,1-.352.352h-2.392a.346.346,0,0,1-.352-.352v-15.27a.346.346,0,0,1,.352-.352Z" transform="translate(-576.771 -65.699)"/><path class="a" d="M823.869,199.71c.258-.14.445-.092.54.092l.821,1.525a.391.391,0,0,1-.164.469,7.615,7.615,0,0,1-4.034,1.1,5.852,5.852,0,0,1-4.269-1.571,5.683,5.683,0,0,1-1.571-4.152,5.577,5.577,0,0,1,1.571-3.964,5.336,5.336,0,0,1,3.941-1.5,4.859,4.859,0,0,1,4.152,1.877,7.261,7.261,0,0,1,.985,4.292.333.333,0,0,1-.352.352h-7.013a2.587,2.587,0,0,0,.7,1.431,2.854,2.854,0,0,0,2.088.775A4.966,4.966,0,0,0,823.869,199.71Zm-1.032-3.519a2.249,2.249,0,0,0-.516-1.4,2.168,2.168,0,0,0-1.6-.633,2.261,2.261,0,0,0-1.689.633,2.62,2.62,0,0,0-.586,1.408Z" transform="translate(-621.769 -114.981)"/><path class="a" d="M954.264,199.9c.235-.14.422-.092.516.092l.868,1.69a.329.329,0,0,1-.141.445,6.3,6.3,0,0,1-3.636,1.031,6.1,6.1,0,0,1-4.574-1.712,5.611,5.611,0,0,1-1.407-3.894,5.361,5.361,0,0,1,1.173-3.448A6.172,6.172,0,0,1,951.941,192a6.08,6.08,0,0,1,3.519,1.055.348.348,0,0,1,.141.469l-.915,1.713a.355.355,0,0,1-.516.092,3.919,3.919,0,0,0-2.229-.7,2.838,2.838,0,0,0-2.134.892,2.982,2.982,0,0,0-.751,2.041,3.03,3.03,0,0,0,.774,2.134,2.784,2.784,0,0,0,2.111.868A4.351,4.351,0,0,0,954.264,199.9Z" transform="translate(-740.389 -115.244)"/><path class="a" d="M1070,194.355a.345.345,0,0,1,.351-.351h2.393a.346.346,0,0,1,.352.351v5.563a2.958,2.958,0,0,0,.305,1.455,1.966,1.966,0,0,0,1.9.985,2.033,2.033,0,0,0,1.924-.985,2.979,2.979,0,0,0,.3-1.455v-5.563a.333.333,0,0,1,.352-.351h2.393a.346.346,0,0,1,.352.351v5.771a4.893,4.893,0,0,1-.939,3.166,6.51,6.51,0,0,1-8.749,0,4.9,4.9,0,0,1-.938-3.166Z" transform="translate(-853.028 -117.062)"/><path class="a" d="M1206.1,137.409h2.392a.36.36,0,0,1,.352.352v15.27a.36.36,0,0,1-.352.352H1206.1a.346.346,0,0,1-.352-.352v-15.27a.346.346,0,0,1,.352-.352Z" transform="translate(-976.231 -65.699)"/><path class="a" d="M1263.4,199.71c.258-.14.445-.092.539.092l.822,1.525a.391.391,0,0,1-.165.469,7.617,7.617,0,0,1-4.034,1.1,5.852,5.852,0,0,1-4.269-1.571,5.679,5.679,0,0,1-1.571-4.152,5.581,5.581,0,0,1,1.571-3.964,5.334,5.334,0,0,1,3.941-1.5,4.859,4.859,0,0,1,4.152,1.877,7.26,7.26,0,0,1,.985,4.292.334.334,0,0,1-.352.352H1258a2.589,2.589,0,0,0,.7,1.431,2.854,2.854,0,0,0,2.088.775A4.968,4.968,0,0,0,1263.4,199.71Zm-1.032-3.519a2.25,2.25,0,0,0-.516-1.408,2.168,2.168,0,0,0-1.6-.633,2.258,2.258,0,0,0-1.689.633,2.62,2.62,0,0,0-.587,1.408Z" transform="translate(-1020.676 -114.981)"/></g></svg>