<svg xmlns="http://www.w3.org/2000/svg" width="162.068" height="27.577" viewBox="0 0 162.068 27.577"><defs><style>.a{fill:#fff;}</style></defs><g transform="translate(-73.246 -65.017)"><path class="a" d="M149.743,299.835a.293.293,0,0,1-.414,0l-2.764-2.764a10.807,10.807,0,0,0-.844,1.52l3.224,3.224a.836.836,0,0,0,1.182,0l3.226-3.225a10.764,10.764,0,0,0-.843-1.521Z" transform="translate(-67.072 -214.754)"/><path class="a" d="M258.7,194.208a.836.836,0,0,0-.245-.591l-3.043-3.043a.292.292,0,0,0-.451.048c-.2.307-.414.6-.626.888a.289.289,0,0,0,.027.38L256.478,194a.293.293,0,0,1,0,.414l-2.757,2.757a13.748,13.748,0,0,1,.891,1.473l3.846-3.846A.836.836,0,0,0,258.7,194.208Z" transform="translate(-167.023 -116.119)"/><path class="a" d="M75.471,194.415a.293.293,0,0,1,0-.414l2.112-2.112a.289.289,0,0,0,.027-.38c-.212-.284-.422-.58-.626-.888a.292.292,0,0,0-.451-.048l-3.043,3.043a.836.836,0,0,0,0,1.182l3.846,3.846a13.741,13.741,0,0,1,.891-1.473Z" transform="translate(0 -116.119)"/><path class="a" d="M129.68,77.559c.033.027.184.152.415.362,1.2-1.12,4.019-4.109,4.019-7.4a5.5,5.5,0,1,0-11,0c0,3.3,2.822,6.285,4.019,7.4.231-.21.382-.336.415-.363A1.707,1.707,0,0,1,129.68,77.559Zm-4.962-7.041a3.9,3.9,0,0,1,7.792,0c0,3.115-3.428,6.174-3.9,6.577-.469-.4-3.9-3.464-3.9-6.577Z" transform="translate(-46.15)"/><path class="a" d="M121.657,228.988c-.231-.21-.382-.335-.415-.362a1.707,1.707,0,0,0-2.132,0c-.033.027-.184.153-.415.363a18.953,18.953,0,0,0-2.754,3.131,13.739,13.739,0,0,0-.891,1.473A8.526,8.526,0,0,0,114,237.481a6.18,6.18,0,1,0,12.36,0,8.526,8.526,0,0,0-1.053-3.889,13.749,13.749,0,0,0-.891-1.473,18.948,18.948,0,0,0-2.754-3.131Zm2.943,8.493a4.424,4.424,0,1,1-8.849,0,6.362,6.362,0,0,1,.609-2.577,10.806,10.806,0,0,1,.844-1.52,17.434,17.434,0,0,1,2.971-3.361,17.336,17.336,0,0,1,2.973,3.359,10.765,10.765,0,0,1,.843,1.521A6.375,6.375,0,0,1,124.6,237.481Z" transform="translate(-37.713 -151.067)"/><path class="a" d="M368.8,192.733a3.487,3.487,0,0,1,4.843.492,3.834,3.834,0,0,1,5.24-.4,3.42,3.42,0,0,1,.946,2.649v5.032a.291.291,0,0,1-.284.284h-1.93a.279.279,0,0,1-.284-.284V196.1a2.666,2.666,0,0,0-.378-1.551,1.438,1.438,0,0,0-2.289.208,3.747,3.747,0,0,0-.34,1.835v3.916a.291.291,0,0,1-.284.284h-1.93a.279.279,0,0,1-.284-.284V196.1a2.667,2.667,0,0,0-.378-1.551,1.311,1.311,0,0,0-1.1-.473,1.337,1.337,0,0,0-1.192.681,3.969,3.969,0,0,0-.341,1.778v3.973a.291.291,0,0,1-.284.284h-1.93a.279.279,0,0,1-.284-.284v-8.1a.268.268,0,0,1,.284-.284h1.854a.279.279,0,0,1,.284.284v.322Z" transform="translate(-271.232 -117.495)"/><path class="a" d="M569.813,191.724a4.515,4.515,0,1,1-4.673,4.521A4.4,4.4,0,0,1,569.813,191.724Zm0,6.924a2.411,2.411,0,1,0-2.214-2.4A2.189,2.189,0,0,0,569.813,198.648Z" transform="translate(-455.228 -117.262)"/><path class="a" d="M709.091,137.412h1.93a.291.291,0,0,1,.284.284v12.316a.291.291,0,0,1-.284.284h-1.93a.279.279,0,0,1-.284-.284V137.7a.279.279,0,0,1,.284-.284Z" transform="translate(-588.186 -66.998)"/><path class="a" d="M765.386,198.175c.208-.113.359-.076.435.076l.662,1.23a.316.316,0,0,1-.132.378,6.145,6.145,0,0,1-3.254.889,4.719,4.719,0,0,1-3.443-1.268,4.582,4.582,0,0,1-1.268-3.348,4.5,4.5,0,0,1,1.268-3.2,4.3,4.3,0,0,1,3.178-1.211,3.919,3.919,0,0,1,3.349,1.513,5.854,5.854,0,0,1,.795,3.462.268.268,0,0,1-.284.284h-5.657a2.087,2.087,0,0,0,.568,1.154,2.3,2.3,0,0,0,1.684.624A4.011,4.011,0,0,0,765.386,198.175Zm-.832-2.838a1.813,1.813,0,0,0-.416-1.135,1.748,1.748,0,0,0-1.286-.511,1.825,1.825,0,0,0-1.362.511,2.117,2.117,0,0,0-.473,1.135Z" transform="translate(-634.069 -117.262)"/><path class="a" d="M895.84,198.352c.189-.113.341-.076.416.076l.7,1.362a.265.265,0,0,1-.114.359,5.078,5.078,0,0,1-2.932.832,4.921,4.921,0,0,1-3.689-1.381,4.522,4.522,0,0,1-1.135-3.141,4.328,4.328,0,0,1,.946-2.781,4.977,4.977,0,0,1,3.935-1.7,4.906,4.906,0,0,1,2.838.851.282.282,0,0,1,.114.378l-.738,1.381a.288.288,0,0,1-.416.076,3.158,3.158,0,0,0-1.8-.568,2.293,2.293,0,0,0-1.722.719,2.408,2.408,0,0,0-.605,1.646,2.458,2.458,0,0,0,.624,1.722,2.245,2.245,0,0,0,1.7.7A3.513,3.513,0,0,0,895.84,198.352Z" transform="translate(-755.027 -117.495)"/><path class="a" d="M1013.186,194.285a.279.279,0,0,1,.284-.284h1.93a.279.279,0,0,1,.284.284v4.484a2.4,2.4,0,0,0,.246,1.173,1.586,1.586,0,0,0,1.532.795,1.637,1.637,0,0,0,1.551-.795,2.4,2.4,0,0,0,.246-1.173v-4.484a.268.268,0,0,1,.284-.284h1.93a.279.279,0,0,1,.284.284v4.654a3.951,3.951,0,0,1-.757,2.554,5.25,5.25,0,0,1-7.056,0,3.951,3.951,0,0,1-.757-2.554Z" transform="translate(-869.876 -119.369)"/><path class="a" d="M1149.235,137.412h1.93a.291.291,0,0,1,.284.284v12.316a.291.291,0,0,1-.284.284h-1.93a.279.279,0,0,1-.284-.284V137.7a.279.279,0,0,1,.284-.284Z" transform="translate(-995.521 -66.998)"/><path class="a" d="M1204.914,198.175c.208-.113.359-.076.435.076l.662,1.23a.316.316,0,0,1-.132.378,6.144,6.144,0,0,1-3.254.889,4.719,4.719,0,0,1-3.443-1.268,4.581,4.581,0,0,1-1.268-3.348,4.5,4.5,0,0,1,1.268-3.2,4.3,4.3,0,0,1,3.178-1.211,3.919,3.919,0,0,1,3.349,1.513,5.855,5.855,0,0,1,.795,3.462.268.268,0,0,1-.284.284h-5.657a2.087,2.087,0,0,0,.568,1.154,2.3,2.3,0,0,0,1.684.624A4.011,4.011,0,0,0,1204.914,198.175Zm-.832-2.838a1.813,1.813,0,0,0-.416-1.135,1.748,1.748,0,0,0-1.286-.511,1.825,1.825,0,0,0-1.362.511,2.119,2.119,0,0,0-.473,1.135Z" transform="translate(-1040.834 -117.262)"/><path class="a" d="M1490.794,199.892a2.863,2.863,0,0,1-1.074.78,3.614,3.614,0,0,1-1.417.272,2.993,2.993,0,0,1-1.52-.391,2.707,2.707,0,0,1-1.048-1.094,3.409,3.409,0,0,1-.377-1.619,3.364,3.364,0,0,1,.377-1.61,2.723,2.723,0,0,1,1.049-1.086,3,3,0,0,1,1.52-.39,3.3,3.3,0,0,1,2.374.936l.108.1.779-.922-.091-.091a4.125,4.125,0,0,0-1.409-.913,4.892,4.892,0,0,0-1.807-.325,4.354,4.354,0,0,0-2.179.546,3.918,3.918,0,0,0-1.51,1.534,4.781,4.781,0,0,0,0,4.434,3.913,3.913,0,0,0,1.51,1.534,4.352,4.352,0,0,0,2.179.546,4.777,4.777,0,0,0,1.914-.374,3.835,3.835,0,0,0,1.437-1.062l.08-.1-.792-.833Z" transform="translate(-1305.615 -118.947)"/><path class="a" d="M1604.18,194.328a3.459,3.459,0,0,0-2.409-.785,5.2,5.2,0,0,0-1.78.284,7.2,7.2,0,0,0-1.622.875l-.112.078.628.963.12-.089a4.345,4.345,0,0,1,2.577-.964,2.309,2.309,0,0,1,1.605.5,1.825,1.825,0,0,1,.537,1.408v.489h-2.63a3.893,3.893,0,0,0-2.359.642,2.127,2.127,0,0,0-.883,1.8,2.492,2.492,0,0,0,1.407,2.29,3.368,3.368,0,0,0,1.535.338,4.531,4.531,0,0,0,1.868-.367,3.127,3.127,0,0,0,1.082-.8l.013,1.119h1.319l-.016-5.6A2.857,2.857,0,0,0,1604.18,194.328Zm-.44,4.83a2.38,2.38,0,0,1-.969,1.344h0a3.153,3.153,0,0,1-1.787.488,2.065,2.065,0,0,1-1.351-.417,1.32,1.32,0,0,1-.492-1.08,1.063,1.063,0,0,1,.5-.968,2.975,2.975,0,0,1,1.577-.34h2.52Z" transform="translate(-1410.96 -118.945)"/><path class="a" d="M1721.337,177.419a2.59,2.59,0,0,1-1.3.421c-.426,0-.993-.144-.993-1.387v-4.6h2.676v-1.116l-2.676.016V168.63h-1.336v2.125h-1.2l.021,1.1h1.178v4.771a2.6,2.6,0,0,0,.589,1.844,2.106,2.106,0,0,0,1.6.626h0a3.523,3.523,0,0,0,1.9-.639l.092-.063-.416-1.061Z" transform="translate(-1520.774 -95.89)"/><path class="a" d="M1806.714,194.328a3.459,3.459,0,0,0-2.409-.785,5.205,5.205,0,0,0-1.78.284,7.192,7.192,0,0,0-1.622.875l-.112.078.628.963.12-.089a4.345,4.345,0,0,1,2.577-.964,2.309,2.309,0,0,1,1.605.5,1.825,1.825,0,0,1,.537,1.408v.489h-2.63a3.893,3.893,0,0,0-2.359.642,2.127,2.127,0,0,0-.883,1.8,2.492,2.492,0,0,0,1.407,2.29,3.368,3.368,0,0,0,1.535.338,4.529,4.529,0,0,0,1.868-.367,3.125,3.125,0,0,0,1.082-.8l.013,1.119h1.319l-.016-5.6A2.857,2.857,0,0,0,1806.714,194.328Zm-.44,4.83a2.38,2.38,0,0,1-.969,1.344h0a3.153,3.153,0,0,1-1.787.488,2.065,2.065,0,0,1-1.351-.417,1.32,1.32,0,0,1-.492-1.08,1.063,1.063,0,0,1,.5-.968,2.975,2.975,0,0,1,1.577-.34h2.52Z" transform="translate(-1598.397 -118.945)"/><rect class="a" width="1.336" height="11.962" transform="translate(211.829 71.198)"/><path class="a" d="M1972.961,193.974l-2.63,6.84-2.736-6.84h-1.423l3.475,8.343-.323.795a2.3,2.3,0,0,1-.636.906,1.271,1.271,0,0,1-.825.3,1.921,1.921,0,0,1-1.1-.353l-.125-.086-.61,1.057.1.075a2.87,2.87,0,0,0,1.786.6,2.392,2.392,0,0,0,1.511-.518h0a3.5,3.5,0,0,0,1.043-1.49l3.888-9.623Z" transform="translate(-1751.69 -119.344)"/><path class="a" d="M2082.06,197.454a11.1,11.1,0,0,0-1.4-.5,10.094,10.094,0,0,1-1.063-.364,1.832,1.832,0,0,1-.6-.4.811.811,0,0,1-.22-.595.881.881,0,0,1,.415-.8,2.2,2.2,0,0,1,1.192-.285,4.079,4.079,0,0,1,1.111.16h0a3.888,3.888,0,0,1,1.018.448l.13.082.538-1.054-.108-.069a4.639,4.639,0,0,0-1.217-.536,5.125,5.125,0,0,0-1.408-.194,3.671,3.671,0,0,0-2.1.575,1.991,1.991,0,0,0-.872,1.753,1.953,1.953,0,0,0,.393,1.261,2.538,2.538,0,0,0,.933.724,11.292,11.292,0,0,0,1.37.494c.468.146.837.274,1.1.381a1.727,1.727,0,0,1,.619.422.92.92,0,0,1,.231.653.99.99,0,0,1-.464.89,2.314,2.314,0,0,1-1.285.323,3.967,3.967,0,0,1-1.437-.274,3.877,3.877,0,0,1-1.223-.744l-.13-.119-.565,1,.077.075a3.984,3.984,0,0,0,1.452.882,5.255,5.255,0,0,0,1.779.307,3.791,3.791,0,0,0,2.205-.615,2.092,2.092,0,0,0,.911-1.823,2.017,2.017,0,0,0-.409-1.309A2.656,2.656,0,0,0,2082.06,197.454Z" transform="translate(-1854.4 -118.758)"/><path class="a" d="M2180.191,177.334l-.142.085a2.59,2.59,0,0,1-1.3.421c-.426,0-.993-.144-.993-1.387v-4.6h2.676v-1.116l-2.676.016V168.63h-1.336v2.125h-1.2l.021,1.1h1.178v4.771a2.6,2.6,0,0,0,.589,1.844,2.106,2.106,0,0,0,1.6.626h0a3.524,3.524,0,0,0,1.9-.639l.092-.063Z" transform="translate(-1945.293 -95.89)"/><path class="a" d="M1390.361,151.189a.663.663,0,0,0-.662.662V164.86a.662.662,0,0,0,1.325,0V151.851a.662.662,0,0,0-.662-.662Z" transform="translate(-1218.322 -79.748)"/></g></svg>