<svg width="100" height="30" viewBox="0 0 100 30" fill="none" xmlns="http://www.w3.org/2000/svg">
<path d="M10.3588 21.8299C10.2322 21.9575 10.0424 21.9575 9.91579 21.8299L6.94111 18.8299C6.60356 19.3405 6.2871 19.915 6.03394 20.4894L9.49385 23.9788C9.66263 24.149 9.89469 24.2554 10.1268 24.2554C10.3588 24.2554 10.5909 24.1703 10.7597 23.9788L14.2407 20.4682C13.9875 19.8937 13.6711 19.3405 13.3335 18.8086L10.3588 21.8299Z" fill="white"/>
<path d="M20.0843 14.2129C20.0843 13.9789 19.9999 13.7448 19.8101 13.5746L16.54 10.2768C16.3924 10.1278 16.1603 10.1704 16.0548 10.3193C15.8438 10.6597 15.6118 10.9789 15.3797 11.2768C15.2953 11.4044 15.2953 11.5746 15.4008 11.681L17.6793 13.9789C17.8059 14.1065 17.8059 14.298 17.6793 14.4257L14.7046 17.447C15.0421 17.9576 15.3797 18.4895 15.6751 19.0427L19.8312 14.8512C19.9789 14.7023 20.0843 14.4682 20.0843 14.2129Z" fill="white"/>
<path d="M2.595 14.4468C2.46842 14.3191 2.46842 14.1276 2.595 14L4.87349 11.7021C4.97897 11.5957 5.00007 11.4255 4.89458 11.2978C4.66252 10.9787 4.43045 10.6595 4.21948 10.3404C4.11399 10.1702 3.88192 10.1489 3.73425 10.2978L0.464203 13.5744C0.295427 13.7446 0.189941 13.9787 0.189941 14.2127C0.189941 14.4468 0.295427 14.6808 0.464203 14.851L4.62032 19.0425C4.91568 18.4681 5.23214 17.9361 5.59079 17.4468L2.595 14.4468Z" fill="white"/>
<path fill-rule="evenodd" clip-rule="evenodd" d="M11.5086 13.8351C11.3888 13.722 11.315 13.6523 11.2871 13.6383C10.6331 13.1064 9.64152 13.1064 8.98752 13.6383C8.97561 13.6623 8.91668 13.7134 8.8221 13.7955C8.74907 13.8588 8.65478 13.9406 8.54448 14.0426C7.25756 12.8298 4.19849 9.57447 4.19849 5.97872C4.19849 2.68085 6.83562 0 10.1268 0C13.4179 0 16.0761 2.68085 16.0761 5.97872C16.0761 9.57447 13.0171 12.8298 11.7301 14.0426C11.6441 13.963 11.5703 13.8933 11.5086 13.8351ZM10.1268 1.74468C7.80608 1.74468 5.92844 3.6383 5.92844 5.97872C5.92844 9.29492 9.49638 12.5702 10.0943 13.1191C10.1063 13.1302 10.1172 13.1401 10.1268 13.1489C10.6331 12.7021 14.3462 9.3617 14.3251 5.97872C14.3251 3.6383 12.4474 1.74468 10.1268 1.74468Z" fill="white"/>
<path fill-rule="evenodd" clip-rule="evenodd" d="M11.4524 13.7956C11.5254 13.8589 11.6197 13.9407 11.73 14.0427C12.384 14.6384 13.6076 15.8512 14.6836 17.4469C15.0422 17.9363 15.3587 18.4682 15.6541 19.0427C16.3292 20.3405 16.7933 21.7873 16.7933 23.2767C16.7933 26.9788 13.7975 30.0001 10.1266 30.0001C6.45574 30.0001 3.45996 26.9788 3.45996 23.2767C3.45996 21.7873 3.9241 20.3405 4.5992 19.0427C4.89456 18.4895 5.23211 17.9575 5.56967 17.4469C6.66671 15.8512 7.89034 14.6384 8.54435 14.0427C8.63037 13.9631 8.70421 13.8934 8.76587 13.8352C8.88569 13.7221 8.95953 13.6524 8.98739 13.6384C9.6414 13.1065 10.633 13.0852 11.287 13.6384C11.2989 13.6624 11.3578 13.7135 11.4524 13.7956ZM10.1477 28.0852C12.7849 28.0852 14.9157 25.9363 14.9157 23.2767C14.9157 22.3193 14.6414 21.3618 14.2616 20.4682C14.0085 19.8937 13.692 19.3193 13.3545 18.8086C12.0887 16.8512 10.4642 15.4044 10.1477 15.149C9.83127 15.4256 8.2068 16.8724 6.94097 18.8086C6.60342 19.3405 6.28697 19.8937 6.0338 20.4682C5.63296 21.3618 5.37979 22.3193 5.37979 23.2767C5.37979 25.9363 7.51059 28.0852 10.1477 28.0852Z" fill="white"/>
<path d="M26.4348 11.1276C27.0466 10.5957 27.8483 10.2979 28.7343 10.2979C29.8736 10.2979 30.9284 10.6808 31.6457 11.6596C32.363 10.7659 33.4179 10.2979 34.6626 10.2979C35.6542 10.2979 36.6035 10.5744 37.2997 11.234C37.9326 11.8085 38.3124 12.7659 38.3124 14.1064V19.5744C38.3124 19.7447 38.1647 19.8936 37.9959 19.8936H35.9073C35.7175 19.8936 35.5909 19.7447 35.5909 19.5744V14.7872C35.5909 14.1489 35.4854 13.5106 35.19 13.1064C34.958 12.8085 34.5993 12.5957 34.0086 12.5957C33.3968 12.5957 32.9748 12.9149 32.7217 13.3404C32.4263 13.8298 32.363 14.5319 32.363 15.3404V19.5957C32.363 19.7659 32.2153 19.9149 32.0466 19.9149H29.958C29.7681 19.9149 29.6415 19.7659 29.6415 19.5957V14.7872C29.6415 14.1489 29.536 13.5106 29.2407 13.1064C29.0086 12.8085 28.6499 12.5957 28.0592 12.5957C27.4474 12.5957 27.0466 12.9149 26.7723 13.3404C26.498 13.8085 26.4348 14.4893 26.4137 15.2766V19.5744C26.4137 19.7447 26.266 19.8936 26.0972 19.8936H24.0086C23.8187 19.8936 23.6921 19.7447 23.6921 19.5744V10.7659C23.6921 10.5744 23.8187 10.4468 24.0086 10.4468H26.0128C26.1816 10.4468 26.3293 10.5744 26.3293 10.7659V11.1064H26.4348V11.1276Z" fill="white"/>
<path fill-rule="evenodd" clip-rule="evenodd" d="M49.8523 15.1913C49.8523 12.1274 47.5949 10.2764 44.789 10.2764C41.962 10.2764 39.7468 12.1274 39.7468 15.1913C39.7468 18.2551 41.962 20.0849 44.789 20.0849C47.616 20.0849 49.8523 18.2551 49.8523 15.1913ZM47.173 15.1913C47.173 16.7232 46.2658 17.8083 44.789 17.8083C43.3122 17.8083 42.4051 16.7232 42.4051 15.1913C42.4051 13.6593 43.3122 12.5742 44.789 12.5742C46.2447 12.5742 47.173 13.6593 47.173 15.1913Z" fill="white"/>
<path d="M51.6036 5.87256H53.6922C53.8609 5.87256 54.0086 6.02149 54.0086 6.19171V19.596C54.0086 19.7662 53.8609 19.9151 53.6922 19.9151H51.6036C51.4137 19.9151 51.2871 19.7662 51.2871 19.596V6.17043C51.2871 6.02149 51.4137 5.87256 51.6036 5.87256Z" fill="white"/>
<path fill-rule="evenodd" clip-rule="evenodd" d="M63.2913 17.3828C63.2069 17.2125 63.0592 17.17 62.8272 17.2976C62.1521 17.6806 61.4769 17.9359 60.5487 17.9359C59.7892 17.9359 59.1352 17.6806 58.7343 17.2551C58.4179 16.9359 58.228 16.5317 58.1225 15.9998H64.2196C64.4094 15.9998 64.536 15.8721 64.536 15.6806C64.5571 14.2338 64.3461 12.8508 63.671 11.9147C62.9326 10.9147 61.7512 10.2764 60.0634 10.2764C58.6077 10.2764 57.4474 10.7657 56.6457 11.5955C55.8018 12.4466 55.2744 13.6381 55.2744 15.0636C55.2744 16.553 55.7596 17.8296 56.6457 18.7019C57.5318 19.5955 58.7976 20.0849 60.3588 20.0849C61.709 20.0849 63.1014 19.6593 63.8609 19.1274C64.0086 19.0423 64.0719 18.8721 64.0086 18.7232L63.2913 17.3828ZM61.498 12.9785C61.7723 13.3189 61.92 13.7232 61.9411 14.2125H58.1225C58.1858 13.7445 58.3335 13.2976 58.6288 12.9785C58.9453 12.6381 59.4938 12.4253 60.1056 12.4253C60.6964 12.4253 61.1816 12.6593 61.498 12.9785Z" fill="white"/>
<path d="M73.0803 17.234C73.2913 17.1064 73.439 17.1489 73.5234 17.3191L74.2829 18.8085C74.3673 18.9574 74.304 19.1064 74.1563 19.1915C73.3968 19.7447 72.2576 20.1064 70.9917 20.1064C69.2829 20.1064 67.9327 19.5744 67.0044 18.5957C66.2238 17.7447 65.7808 16.5744 65.7808 15.1702C65.7808 13.9574 66.1605 12.9361 66.7934 12.1489C67.7428 10.9574 69.304 10.2979 71.0339 10.2979C72.2997 10.2979 73.3335 10.6808 74.093 11.234C74.2407 11.3404 74.304 11.4893 74.2196 11.6383L73.4179 13.1489C73.3546 13.2979 73.1436 13.3404 72.9749 13.234C72.3208 12.8298 71.7723 12.617 71.0339 12.617C70.2744 12.617 69.6204 12.9149 69.1774 13.4042C68.7765 13.851 68.5234 14.4681 68.5234 15.1915C68.5234 15.9574 68.7765 16.617 69.1985 17.0638C69.6204 17.5319 70.2533 17.8298 71.0339 17.8298C71.8145 17.8085 72.4052 17.617 73.0803 17.234Z" fill="white"/>
<path d="M75.7808 10.7659C75.7808 10.5744 75.9284 10.4468 76.0972 10.4468H78.1858C78.3546 10.4468 78.5023 10.5744 78.5023 10.7659V15.6383C78.5023 16.1702 78.5867 16.5744 78.7765 16.9149C79.0508 17.4255 79.5782 17.7872 80.4221 17.7872C81.266 17.7872 81.8145 17.4468 82.0888 16.9149C82.2787 16.5744 82.363 16.1702 82.363 15.6383V10.7659C82.363 10.5744 82.4896 10.4468 82.6795 10.4468H84.7681C84.9369 10.4468 85.0846 10.5744 85.0846 10.7659V15.8298C85.0846 17.0425 84.7892 17.9361 84.2618 18.617C83.4601 19.617 82.1099 20.1064 80.4432 20.1064C78.7976 20.1064 77.4474 19.6383 76.6457 18.617C76.1183 17.9361 75.823 17.0425 75.823 15.8298V10.7659H75.7808Z" fill="white"/>
<path d="M86.9832 5.87256H89.0718C89.2406 5.87256 89.3883 6.02149 89.3883 6.19171V19.596C89.3883 19.7662 89.2406 19.9151 89.0718 19.9151H86.9832C86.7933 19.9151 86.6667 19.7662 86.6667 19.596V6.17043C86.6878 6.02149 86.8144 5.87256 86.9832 5.87256Z" fill="white"/>
<path fill-rule="evenodd" clip-rule="evenodd" d="M98.6287 17.3828C98.5443 17.2125 98.3966 17.17 98.1646 17.2976C97.5106 17.6806 96.8143 17.9359 95.9072 17.9359C95.1477 17.9359 94.4937 17.6806 94.0928 17.2551C93.7764 16.9359 93.5865 16.5317 93.481 15.9998H99.5781C99.7679 15.9998 99.8945 15.8721 99.8945 15.6806C99.9156 14.2338 99.7046 12.8508 99.0295 11.9147C98.2911 10.9147 97.1097 10.2764 95.4219 10.2764C93.9451 10.2764 92.7848 10.7657 91.9831 11.5955C91.1392 12.4466 90.6118 13.6381 90.6118 15.0636C90.6118 16.553 91.097 17.8296 91.9831 18.7019C92.8692 19.5955 94.135 20.0849 95.6962 20.0849C97.0464 20.0849 98.4388 19.6593 99.1983 19.1274C99.346 19.0423 99.4093 18.8721 99.346 18.7232L98.6287 17.3828ZM96.8354 12.9785C97.1097 13.3189 97.2574 13.7232 97.2785 14.2125H93.4599C93.5232 13.7445 93.6709 13.2976 93.9662 12.9785C94.2827 12.6381 94.8312 12.4253 95.443 12.4253C96.0338 12.4253 96.519 12.6593 96.8354 12.9785Z" fill="white"/>
</svg>
