<svg id="Layer_1" data-name="Layer 1" xmlns="http://www.w3.org/2000/svg" viewBox="0 0 2420.73797 500"><defs><style>.cls-1{fill:#fff;}</style></defs><title>Logos Molecule</title><path class="cls-1" d="M199.6791,334.17978a3.92973,3.92973,0,0,1-5.55753,0L157.042,297.10022a144.97943,144.97943,0,0,0-11.32135,20.39636l43.25011,43.24985a11.21376,11.21376,0,0,0,15.86124,0l43.27187-43.27053A144.4139,144.4139,0,0,0,236.79,297.0692Z"/><path class="cls-1" d="M320.55756,240.37759a11.21283,11.21283,0,0,0-3.28309-7.92929l-40.82506-40.82374a3.92181,3.92181,0,0,0-6.0454.644c-2.74006,4.12255-5.55489,8.09793-8.39835,11.90892a3.88317,3.88317,0,0,0,.368,5.0914l28.32883,28.3299a3.92973,3.92973,0,0,1,0,5.55753L253.72186,280.137a184.42055,184.42055,0,0,1,11.95771,19.76371l51.5949-51.59384A11.21287,11.21287,0,0,0,320.55756,240.37759Z"/><path class="cls-1" d="M103.09788,243.15636a3.92975,3.92975,0,0,1,0-5.55753l28.33122-28.32937a3.88292,3.88292,0,0,0,.368-5.09166c-2.84347-3.811-5.65776-7.78638-8.39782-11.90919a3.92161,3.92161,0,0,0-6.0454-.64378L76.5315,232.4483a11.21054,11.21054,0,0,0,0,15.85859l51.59278,51.59278a184.33555,184.33555,0,0,1,11.95612-19.76106Z"/><path class="cls-1" d="M211.203,233.2692c.44333.36352,2.47225,2.0459,5.56654,4.85966,16.06011-15.02257,53.92027-55.12431,53.92027-99.32339a73.78818,73.78818,0,0,0-147.57636,0c0,44.26484,37.8538,84.321,53.916,99.325,3.09695-2.81721,5.128-4.50224,5.57185-4.86682A22.89879,22.89879,0,0,1,211.203,233.2692Zm-66.56949-94.46373a52.26786,52.26786,0,1,1,104.53571,0c0,41.78861-45.98169,82.8242-52.26733,88.237C190.61576,221.62649,144.63354,180.567,144.63354,138.80547Z"/><path class="cls-1" d="M216.76957,238.12886c-3.09429-2.81376-5.12321-4.49614-5.56654-4.85966a22.89879,22.89879,0,0,0-28.60168-.00557c-.44386.36458-2.4749,2.04961-5.57185,4.86682a254.25309,254.25309,0,0,0-36.9491,42.00816,184.33555,184.33555,0,0,0-11.95612,19.76106c-8.28009,15.95908-14.12823,33.74769-14.12823,52.17213a82.90535,82.90535,0,1,0,165.81069,0c0-18.42417-5.84761-36.21225-14.12717-52.17107A184.42055,184.42055,0,0,0,253.72186,280.137,254.20036,254.20036,0,0,0,216.76957,238.12886ZM256.25563,352.0718a59.354,59.354,0,1,1-118.70794,0c0-11.78881,3.22422-23.51451,8.173-34.57522A144.97943,144.97943,0,0,1,157.042,297.10022c15.79071-23.96421,36.02585-41.80664,39.861-45.08654,3.83883,3.27512,24.09307,21.081,39.887,45.05552a144.4139,144.4139,0,0,1,11.31393,20.4067C253.04043,328.531,256.25563,340.26045,256.25563,352.0718Z"/><path class="cls-1" d="M399.57649,202.12871c7.61425-6.59764,17.51187-10.15234,28.67853-10.15234,14.2142,0,27.41178,4.82374,36.29279,16.75,8.8833-10.91193,22.08089-16.75,37.56183-16.75,12.4357,0,24.11182,3.3,32.74039,11.42139,7.86669,7.1071,12.69043,18.78091,12.69043,35.5309v67.50941a3.90443,3.90443,0,0,1-3.80713,3.80713h-25.888a3.73809,3.73809,0,0,1-3.80713-3.80713V247.3048c0-7.869-1.269-15.73567-5.07617-20.81184-2.79052-3.5524-7.35954-6.34521-14.71907-6.34521a17.65213,17.65213,0,0,0-15.9904,9.138c-3.5524,6.09049-4.56671,14.71906-4.56671,24.61668v52.53562a3.90283,3.90283,0,0,1-3.80713,3.80713h-25.888a3.73809,3.73809,0,0,1-3.80713-3.80713V247.3048c0-7.869-1.269-15.73567-5.07387-20.81184-2.79281-3.5524-7.36183-6.34521-14.72136-6.34521-7.61426,0-12.69043,3.80712-15.9881,9.138-3.3,5.83576-4.31429,14.21191-4.569,23.8548v53.2975a3.90283,3.90283,0,0,1-3.80712,3.80713H370.13836a3.73668,3.73668,0,0,1-3.80712-3.80713V197.81443a3.59663,3.59663,0,0,1,3.80712-3.80713h24.87141a3.73945,3.73945,0,0,1,3.80713,3.80713v4.31428Z"/><path class="cls-1" d="M627.82811,191.72394c35.02375,0,62.9404,22.84048,62.9404,60.657,0,37.81426-27.91665,60.40231-62.9404,60.40231s-62.688-22.58805-62.688-60.40231C565.14015,214.56442,592.80437,191.72394,627.82811,191.72394Zm0,92.888c18.27147,0,29.69285-13.45,29.69285-32.23093s-11.42138-32.23323-29.69285-32.23323c-18.27375,0-29.69514,13.45231-29.69514,32.23323S609.55436,284.61191,627.82811,284.61191Z"/><path class="cls-1" d="M712.61518,137.41212H738.5009a3.90283,3.90283,0,0,1,3.80713,3.80713V306.43807a3.90283,3.90283,0,0,1-3.80713,3.80713H712.61518a3.73669,3.73669,0,0,1-3.80713-3.80713V141.21925A3.73669,3.73669,0,0,1,712.61518,137.41212Z"/><path class="cls-1" d="M852.29118,278.2667c2.79052-1.52148,4.82144-1.01432,5.83576,1.01661l8.8833,16.49526a4.23458,4.23458,0,0,1-1.7762,5.07617c-9.39046,6.59765-26.64761,11.92855-43.65232,11.92855-19.5428,0-35.27848-6.09049-46.19041-17.00472-10.91423-10.6595-17.00471-26.39517-17.00471-44.92136,0-17.51188,6.59764-32.23094,17.00471-42.89044,9.89762-10.15234,24.36425-16.24283,42.63571-16.24283,21.06657,0,35.78563,7.86669,44.92366,20.30239,8.37385,11.42139,10.91193,28.67853,10.6595,46.44513a3.59783,3.59783,0,0,1-3.80713,3.80713H793.9175c1.269,6.59765,3.5524,11.41909,7.61426,15.481,5.07617,5.3286,13.19759,8.37614,22.588,8.37614C835.28646,286.13568,843.915,283.08814,852.29118,278.2667Zm-11.16666-38.069a24.328,24.328,0,0,0-5.58562-15.22852c-3.80484-4.05956-9.89762-6.85237-17.25715-6.85237-7.61426,0-14.46663,2.53808-18.27376,6.85237a28.411,28.411,0,0,0-6.34292,15.22852Z"/><path class="cls-1" d="M979.69115,277.50481c2.53808-1.52147,4.569-1.01431,5.58333,1.01661l9.39046,18.27376c1.01431,1.7762.25472,3.5524-1.52377,4.82145-9.39046,6.85237-23.60236,11.16666-39.338,11.16666-21.319,0-38.069-6.6-49.48808-18.52619-9.64518-10.40707-15.22851-24.8737-15.22851-42.13085,0-14.97379,4.82144-27.66422,12.69043-37.30711,11.92854-14.72135,31.21661-22.84277,52.78805-22.84277,15.73567,0,28.67853,4.82374,38.069,11.42139,1.7762,1.269,2.53808,3.04524,1.52377,5.07617l-9.89762,18.52619c-.76188,1.7762-3.3,2.28565-5.58333,1.01661-8.12141-5.07617-14.97379-7.61426-24.11181-7.61426-9.39046,0-17.51188,3.5524-23.09521,9.64289a32.30849,32.30849,0,0,0-8.12141,22.08089c0,9.39046,3.04524,17.51187,8.37614,23.0952,5.3286,5.83806,13.19759,9.39046,22.84048,9.39046C963.95548,284.61191,971.315,282.32855,979.69115,277.50481Z"/><path class="cls-1" d="M1013.18654,197.81443a3.73809,3.73809,0,0,1,3.80713-3.80713h25.88572a3.73809,3.73809,0,0,1,3.80712,3.80713v60.14988c0,6.59764,1.01662,11.41909,3.3,15.73337,3.3,6.34522,9.89762,10.6595,20.55712,10.6595s17.25715-4.31428,20.81185-10.6595c2.28336-4.31428,3.29767-9.13573,3.29767-15.73337V197.81443a3.59783,3.59783,0,0,1,3.80713-3.80713h25.888a3.73809,3.73809,0,0,1,3.80712,3.80713v62.43323c0,14.97379-3.5524,25.888-10.15234,34.26187-9.89762,12.4357-26.6476,18.27376-47.45945,18.27376-20.55712,0-37.3071-5.83806-47.20472-18.27376-6.59994-8.37385-10.15234-19.28808-10.15234-34.26187Z"/><path class="cls-1" d="M1152.75671,137.41212h25.888a3.90283,3.90283,0,0,1,3.80712,3.80713V306.43807a3.90283,3.90283,0,0,1-3.80712,3.80713h-25.888a3.73615,3.73615,0,0,1-3.80483-3.80713V141.21925A3.73615,3.73615,0,0,1,1152.75671,137.41212Z"/><path class="cls-1" d="M1291.81848,278.2667c2.79052-1.52148,4.82145-1.01432,5.83576,1.01661l8.8833,16.49526a4.23457,4.23457,0,0,1-1.7762,5.07617c-9.39045,6.59765-26.6476,11.92855-43.65232,11.92855-19.5428,0-35.27847-6.09049-46.1904-17.00472-10.91423-10.6595-17.00472-26.39517-17.00472-44.92136,0-17.51188,6.59765-32.23094,17.00472-42.89044,9.89761-10.15234,24.36424-16.24283,42.638-16.24283,21.06428,0,35.78334,7.86669,44.92136,20.30239,8.37385,11.42139,10.91194,28.67853,10.65951,46.44513a3.59783,3.59783,0,0,1-3.80713,3.80713h-75.88555c1.269,6.59765,3.5524,11.41909,7.61425,15.481,5.07618,5.3286,13.19759,8.37614,22.58805,8.37614C1274.81377,286.13568,1283.44234,283.08814,1291.81848,278.2667Zm-11.16666-38.069a24.32787,24.32787,0,0,0-5.58562-15.22852c-3.80483-4.05956-9.89762-6.85237-17.25715-6.85237-7.61425,0-14.46663,2.53808-18.27376,6.85237a28.431,28.431,0,0,0-6.34521,15.22852Z"/><path class="cls-1" d="M1574.86606,278.69238a38.40458,38.40458,0,0,1-14.40234,10.46875,48.48889,48.48889,0,0,1-19.01221,3.65332,40.16487,40.16487,0,0,1-20.38818-5.23925,36.32955,36.32955,0,0,1-14.063-14.66993,45.71907,45.71907,0,0,1-5.05908-21.71386,45.1,45.1,0,0,1,5.05566-21.60059,36.53709,36.53709,0,0,1,14.06641-14.57178,40.19745,40.19745,0,0,1,20.38818-5.23828c12.5249,0,23.23975,4.22705,31.84717,12.56348l1.44922,1.40332,10.44433-12.36817-1.22461-1.22509a55.33174,55.33174,0,0,0-18.90771-12.2461,65.61458,65.61458,0,0,0-24.2417-4.35644,58.41208,58.41208,0,0,0-29.23047,7.32129,52.54883,52.54883,0,0,0-20.25391,20.57763,64.148,64.148,0,0,0,0,59.48194,52.50983,52.50983,0,0,0,20.25342,20.5791,58.39106,58.39106,0,0,0,29.231,7.32031,64.0851,64.0851,0,0,0,25.6709-5.01367,51.43487,51.43487,0,0,0,19.28271-14.25l1.07373-1.28809L1576.224,277.10059Z"/><path class="cls-1" d="M1682.74546,204.07617c-7.64942-6.9834-18.522-10.52441-32.31641-10.52441a69.82643,69.82643,0,0,0-23.87695,3.81006,96.54351,96.54351,0,0,0-21.76368,11.73535l-1.49755,1.04492,8.42627,12.92041,1.60742-1.19141c11.57763-8.583,23.20849-12.93505,34.57031-12.93505,9.45947,0,16.70459,2.249,21.53369,6.6831,4.78125,4.397,7.20557,10.75147,7.20557,18.88818v6.56348h-35.28662c-13.30616,0-23.95166,2.896-31.64161,8.60791-7.86181,5.84082-11.84814,13.95313-11.84814,24.11133a33.43345,33.43345,0,0,0,18.87891,30.71973,45.18415,45.18415,0,0,0,20.59814,4.5332,60.77808,60.77808,0,0,0,25.061-4.918,41.948,41.948,0,0,0,14.51123-10.72363l.1709,15.00781h17.6914l-.21728-75.19141C1694.40464,220.90527,1690.432,211.10107,1682.74546,204.07617Zm-5.90039,64.79785a31.92134,31.92134,0,0,1-12.99756,18.02832h-.00049c-6.48145,4.34375-14.54883,6.5459-23.978,6.5459-7.53809,0-13.63574-1.88086-18.124-5.58789-4.44287-3.66992-6.602-8.41113-6.602-14.49316,0-5.84082,2.20263-10.08789,6.73291-12.98438,4.73828-3.02636,11.85791-4.56152,21.16113-4.56152h33.80811Z"/><path class="cls-1" d="M1781.24887,286.53223c-6.29052,3.748-12.14843,5.64843-17.40966,5.64843-5.71875,0-13.32178-1.92871-13.32178-18.60156v-61.686h35.90332V196.91943l-35.90332.21143V168.63037H1732.599v28.51172h-16.08789l.28418,14.751H1732.599v64.00927c0,10.87305,2.66065,19.19629,7.90674,24.73731,5.272,5.57519,12.48047,8.40234,21.48975,8.40234h.00488a47.273,47.273,0,0,0,25.50244-8.5664l1.23584-.84668-5.582-14.23243Z"/><path class="cls-1" d="M1885.27964,204.07617c-7.64942-6.9834-18.522-10.52441-32.31641-10.52441a69.82643,69.82643,0,0,0-23.877,3.81006,96.54351,96.54351,0,0,0-21.76368,11.73535l-1.49755,1.04492,8.42627,12.92041,1.60742-1.19141c11.57763-8.583,23.20849-12.93505,34.57031-12.93505,9.45947,0,16.70459,2.249,21.53369,6.6831,4.78125,4.397,7.20557,10.75147,7.20557,18.88818v6.56348h-35.28662c-13.30616,0-23.95166,2.896-31.64161,8.60791-7.86181,5.84082-11.84814,13.95313-11.84814,24.11133a33.43345,33.43345,0,0,0,18.87891,30.71973,45.18415,45.18415,0,0,0,20.59814,4.5332,60.77808,60.77808,0,0,0,25.061-4.918,41.948,41.948,0,0,0,14.51123-10.72363l.17089,15.00781h17.69141l-.21728-75.19141C1896.93882,220.90527,1892.96616,211.10107,1885.27964,204.07617Zm-5.9004,64.79785a31.92128,31.92128,0,0,1-12.99755,18.02832h-.00049c-6.48145,4.34375-14.54883,6.5459-23.978,6.5459-7.53809,0-13.63574-1.88086-18.124-5.58789-4.44287-3.66992-6.602-8.41113-6.602-14.49316,0-5.84082,2.20263-10.08789,6.73291-12.98438,4.73828-3.02636,11.85791-4.56152,21.16113-4.56152h33.8081Z"/><rect class="cls-1" x="1932.38755" y="147.93311" width="17.91846" height="160.47607"/><path class="cls-1" d="M2059.06089,193.97412l-35.27735,91.76221-36.70508-91.76221h-19.09619L2014.6,305.89941l-4.34278,10.65918c-2.26416,5.32129-5.13476,9.41114-8.53125,12.15528a17.04587,17.04587,0,0,1-11.06591,4.0166,25.76719,25.76719,0,0,1-14.77393-4.73828l-1.67969-1.15235-8.17968,14.17871,1.312,1.00586a38.495,38.495,0,0,0,23.95508,7.99024,32.09792,32.09792,0,0,0,20.27587-6.94824l.001-.001c5.80078-4.55469,10.51025-11.28418,13.99463-19.99414L2077.721,193.97412Z"/><path class="cls-1" d="M2144.76938,248.52734a148.669,148.669,0,0,0-18.83349-6.7456,135.51964,135.51964,0,0,1-14.25831-4.88819,24.55558,24.55558,0,0,1-8.04882-5.38818,10.87563,10.87563,0,0,1-2.95215-7.98047c0-4.84961,1.82226-8.37158,5.57226-10.76758,3.96534-2.53564,9.34375-3.82128,15.98633-3.82128a54.68391,54.68391,0,0,1,14.90283,2.146h-.00048a52.10876,52.10876,0,0,1,13.65771,6.00977l1.74707,1.10547,7.208-14.13868-1.44483-.91992a62.19676,62.19676,0,0,0-16.334-7.19092,68.73217,68.73217,0,0,0-18.8916-2.60742c-11.17481,0-20.66211,2.59668-28.19824,7.71826-7.76465,5.27784-11.70166,13.1919-11.70166,23.52246,0,6.89063,1.7749,12.583,5.27539,16.91749a34.06522,34.06522,0,0,0,12.51367,9.71923,151.44752,151.44752,0,0,0,18.38281,6.63086c6.272,1.95313,11.22852,3.67481,14.73193,5.11719a23.09869,23.09869,0,0,1,8.30518,5.65723,12.33543,12.33543,0,0,1,3.09424,8.75683c0,5.28614-2.03613,9.19239-6.2251,11.94141-4.38281,2.87793-10.18115,4.33789-17.23437,4.33789a53.22866,53.22866,0,0,1-19.27784-3.6748,52.03746,52.03746,0,0,1-16.41162-9.9834l-1.75049-1.59766-7.5747,13.4668,1.03906,1.01074a53.4396,53.4396,0,0,0,19.47412,11.82715,70.48476,70.48476,0,0,0,23.86768,4.124c11.74218,0,21.69629-2.77734,29.58642-8.25586,8.105-5.6289,12.21436-13.85937,12.21436-24.46289,0-7.16894-1.84766-13.07617-5.4917-17.55762A35.63676,35.63676,0,0,0,2144.76938,248.52734Z"/><path class="cls-1" d="M2241.8685,285.39648l-1.90771,1.13575c-6.29053,3.748-12.14844,5.64843-17.40967,5.64843-5.71875,0-13.32178-1.92871-13.32178-18.60156v-61.686h35.90332V196.91943l-35.90332.21143V168.63037h-17.91845v28.51172H2175.223l.28418,14.751h15.80372v64.00927c0,10.87305,2.66064,19.19629,7.90673,24.73731,5.272,5.57519,12.48047,8.40234,21.48975,8.40234h.00488a47.273,47.273,0,0,0,25.50244-8.5664l1.23584-.84668Z"/><path class="cls-1" d="M1398.58622,151.1888a8.888,8.888,0,0,0-8.88718,8.88717l-.00034,174.51843a8.88717,8.88717,0,0,0,17.77434,0l.00035-174.51843A8.88753,8.88753,0,0,0,1398.58622,151.1888Z"/></svg>