<svg xmlns="http://www.w3.org/2000/svg" width="31.968" height="31.968" viewBox="0 0 31.968 31.968"><defs><style>.a,.b{fill:#fff;stroke-miterlimit:10;}.a{stroke:#37b4a4;stroke-width:1.696px;}.b{stroke:#00d4ea;stroke-width:1.402px;stroke-dasharray:2.805 2.805 2.805 2.805 2.805 2.805;}.c{fill:#37b4a4;}</style></defs><g transform="translate(0)"><g transform="translate(0.848 0.848)"><circle class="a" cx="15.136" cy="15.136" r="15.136"/><circle class="b" cx="12.256" cy="12.256" r="12.256" transform="translate(2.938 2.811)"/><circle class="c" cx="1.289" cy="1.289" r="1.289" transform="translate(13.777 13.949)"/><path class="c" d="M30.737,18.278a2.5,2.5,0,0,0-2.3-.925,9.8,9.8,0,0,0-2.428.364c-.622-2.257-1.653-3.74-2.834-3.741-1.16,0-2.214,1.46-2.817,3.695a9.787,9.787,0,0,0-2.321-.345,2.5,2.5,0,0,0-2.3.923c-.6,1.031.192,2.686,1.846,4.363-1.591,1.632-2.323,3.222-1.743,4.232a2.5,2.5,0,0,0,2.3.925,9.86,9.86,0,0,0,2.214-.3c.622,2.235,1.653,3.7,2.813,3.7s2.214-1.46,2.817-3.695a9.787,9.787,0,0,0,2.321.345,2.5,2.5,0,0,0,2.3-.923c.581-1.01-.149-2.6-1.738-4.234C30.563,20.964,31.338,19.309,30.737,18.278Zm-2.3-.066c.8,0,1.375.194,1.547.5.322.559-.259,1.869-1.721,3.33a17.041,17.041,0,0,0-1.74-1.4,15.986,15.986,0,0,0-.321-2.106,9.028,9.028,0,0,1,2.235-.321Zm-3.85,6.6q-.677.386-1.354.708-.677-.323-1.353-.71c-.43-.258-.859-.516-1.246-.774-.043-.473-.042-.946-.042-1.461,0-.473.022-.924.044-1.375.43-.3.881-.58,1.376-.859q.613-.354,1.225-.644.612.29,1.225.645c.43.258.859.516,1.246.774.043.473.042.946.042,1.461q0,.806-.065,1.547C25.339,24.356,24.974,24.571,24.587,24.807Zm.988.409c-.065.408-.129.817-.194,1.182-.365-.129-.752-.258-1.139-.43.258-.129.516-.279.774-.429.193-.107.387-.215.559-.322Zm-3.353.75c-.43.172-.838.322-1.247.451-.086-.408-.15-.838-.214-1.289.236.151.451.28.709.43.236.129.494.28.752.409Zm-2.47-2.58a11.7,11.7,0,0,1-.924-.774c.28-.258.6-.515.924-.773,0,.236-.022.473-.022.731,0,.279,0,.559.021.817Zm.99-3.287c.065-.473.129-.924.216-1.354.408.129.838.3,1.268.473-.215.107-.451.236-.666.365-.258.172-.537.343-.817.515Zm3.482-.879c.387-.172.774-.3,1.161-.429.086.387.15.8.214,1.225-.236-.151-.451-.28-.709-.43-.215-.108-.43-.237-.666-.366Zm2.362,2.537c.387.3.73.581,1.052.882-.322.279-.666.58-1.053.859.022-.3.022-.6.022-.9S26.608,22.014,26.587,21.757Zm-3.413-6.921c.645,0,1.482,1.14,2.018,3.117-.623.215-1.29.472-1.956.773a19.517,19.517,0,0,0-2.063-.818C21.712,15.952,22.53,14.835,23.174,14.835ZM16.467,18.7c.194-.322.752-.494,1.548-.493a8.862,8.862,0,0,1,2.106.3,17.123,17.123,0,0,0-.324,2.213,14.68,14.68,0,0,0-1.612,1.31C16.746,20.569,16.145,19.258,16.467,18.7Zm1.672,8.231c-.8,0-1.375-.194-1.547-.5-.322-.559.237-1.8,1.614-3.222q.741.645,1.611,1.29a16.109,16.109,0,0,0,.321,2.149,7.7,7.7,0,0,1-2,.278Zm5.027,3.377c-.645,0-1.461-1.118-2-3.053a19.215,19.215,0,0,0,2.063-.794,16.976,16.976,0,0,0,1.934.753C24.627,29.191,23.81,30.308,23.165,30.307Zm6.707-3.864c-.194.322-.752.494-1.548.493a8.715,8.715,0,0,1-2.106-.3,18.6,18.6,0,0,0,.3-2.041,16.951,16.951,0,0,0,1.741-1.374C29.637,24.638,30.2,25.884,29.872,26.443Z" transform="translate(-8.104 -7.333)"/></g></g></svg>